<svg width="191" height="241" viewBox="0 0 191 241" fill="none" xmlns="http://www.w3.org/2000/svg">
<path d="M70.5 0C89.4642 2.26146e-07 108.161 4.47603 125.069 13.0641C141.977 21.6521 156.62 34.1096 167.806 49.4235C178.992 64.7375 186.405 82.4753 189.443 101.195C192.482 119.914 191.059 139.086 185.291 157.152C179.522 175.217 169.572 191.667 156.248 205.162C142.924 218.656 126.603 228.816 108.612 234.814C90.6214 240.812 71.469 242.479 52.7125 239.68C33.956 236.881 16.1251 229.694 0.669804 218.704L7.65283 208.883C21.5626 218.774 37.6104 225.242 54.4912 227.762C71.3721 230.281 88.6092 228.781 104.801 223.383C120.992 217.984 135.681 208.841 147.673 196.695C159.665 184.55 168.62 169.746 173.812 153.486C179.003 137.227 180.284 119.972 177.549 103.125C174.815 86.2778 168.142 70.3137 158.075 56.5312C148.008 42.7487 134.829 31.5369 119.612 23.8077C104.395 16.0784 87.5678 12.05 70.5 12.05L70.5 0Z" fill="#52459E"/>
</svg>
